<svg height="25.811" viewBox="0 0 21.046 25.811" width="21.046" xmlns="http://www.w3.org/2000/svg"><g transform="translate(.25 .25)"><path d="m19.751 1.483h.049a.742.742 0 0 0 0-1.483h-17.073a2.73 2.73 0 0 0 -2.727 2.727v19.857a2.73 2.73 0 0 0 2.727 2.727h15.091a2.73 2.73 0 0 0 2.727-2.727v-15.884a2.719 2.719 0 0 0 -.794-1.922zm-17.024 0h15.541v2.526a2.742 2.742 0 0 0 -.45-.038h-15.091a1.244 1.244 0 0 1 0-2.488zm16.335 21.1a1.245 1.245 0 0 1 -1.244 1.244h-15.091a1.245 1.245 0 0 1 -1.244-1.244v-17.429a2.71 2.71 0 0 0 1.244.3h15.091a1.238 1.238 0 0 1 .718.229c.018.015.036.029.055.042a1.242 1.242 0 0 1 .471.973zm0 0" fill="#20cad1" stroke="#20cad1" stroke-width=".5"/><path d="m1 4.618 17.945.2.9 2.021-.437 16.854-1.075 1.017-16.953-.224-.814-2.079z" fill="#20cad1" stroke="#20cad1"/><path d="m89.417 169.811c-.069 0-.138 0-.207.006a3.519 3.519 0 0 0 -5.145 0q-.1-.006-.207-.006a3.522 3.522 0 0 0 -.742 6.964v3.785a.741.741 0 0 0 .742.742h5.56a.742.742 0 0 0 .742-.742v-3.785a3.522 3.522 0 0 0 -.742-6.964zm-4.817 10.008v-.9h4.077v.9zm4.818-4.448a.742.742 0 0 0 -.742.742v1.324h-4.076v-1.324a.741.741 0 0 0 -.742-.742 2.038 2.038 0 0 1 0-4.077 2.066 2.066 0 0 1 .383.036.742.742 0 0 0 .74-.3 2.037 2.037 0 0 1 3.314 0 .741.741 0 0 0 .74.3 2.062 2.062 0 0 1 .383-.036 2.038 2.038 0 1 1 0 4.077zm0 0" fill="#fff" transform="translate(-76.364 -160.359)"/></g></svg>