<svg height="17" viewBox="0 0 13.579 17" width="13.579" xmlns="http://www.w3.org/2000/svg"><path d="m66.691 5.756a12.451 12.451 0 0 0 -1.982-2.972.468.468 0 0 0 -.67-.032l-2.2 2.057v-4.309a.516.516 0 0 0 -.761-.433 14.443 14.443 0 0 0 -5.078 5.574 9.325 9.325 0 0 0 -.958 4.059 6.289 6.289 0 0 0 6.274 6.289 6.812 6.812 0 0 0 1.848-.278c3.307-.836 5.873-4.911 3.527-9.955zm-6.822 7.844a3.346 3.346 0 0 1 1.448-2.461 3.533 3.533 0 0 1 1.447 2.461 1.447 1.447 0 1 1 -2.895 0zm3.618.988c.716-1.574-.469-3.476-1.9-4.421a.468.468 0 0 0 -.5-.011c-1.492.893-2.659 2.855-1.941 4.432a5.358 5.358 0 0 1 -3.167-4.888c0-3.4 2.221-6.37 4.921-8.373v4.56a.469.469 0 0 0 .788.344l2.632-2.459a9.242 9.242 0 0 1 2.333 5.928 5.358 5.358 0 0 1 -3.167 4.888z" fill="#20cad1" stroke="#20cad1" transform="translate(-54.542 .51)"/></svg>