<svg height="52.76" viewBox="0 0 52.76 52.76" width="52.76" xmlns="http://www.w3.org/2000/svg"><path d="m19.785 0h13.19a19.785 19.785 0 0 1 19.785 19.785v13.19a19.785 19.785 0 0 1 -19.785 19.785h-13.19a19.785 19.785 0 0 1 -19.785-19.785v-13.19a19.785 19.785 0 0 1 19.785-19.785z" fill="#3ab4be" opacity=".675"/><g fill="#fff"><path d="m5.46 27.192a2.065 2.065 0 0 0 2.64 2.645l3.795-.92a12.3 12.3 0 0 0 5.749 1.38 12.568 12.568 0 1 0 -11.264-6.842zm3.277-3.622a1.149 1.149 0 0 0 -.115-.862 10.352 10.352 0 1 1 3.967 3.967 1.115 1.115 0 0 0 -.862-.115l-4.027.977z" transform="translate(9.352 8.38)"/><path d="m2053.667 12858.169v-3.334h-3.333a.834.834 0 0 1 0-1.669h3.333v-3.333a.833.833 0 1 1 1.665 0v3.333h3.334a.834.834 0 0 1 0 1.669h-3.334v3.334a.833.833 0 0 1 -1.665 0z" transform="translate(-2027.5 -12828.317)"/></g></svg>