<svg height="16.789" viewBox="0 0 14.315 16.789" width="14.315" xmlns="http://www.w3.org/2000/svg"><g stroke="#20cad1"><path d="m11.957 4.915.627-.627a.624.624 0 1 0 -.882-.882l-.627.627a6.693 6.693 0 0 0 -3.694-1.533v-1.252h.6a.624.624 0 0 0 .003-1.248h-2.453a.624.624 0 0 0 0 1.248h.6v1.252a6.757 6.757 0 1 0 5.823 2.412zm-5.2 9.827a5.51 5.51 0 1 1 5.51-5.51 5.516 5.516 0 0 1 -5.51 5.51z" fill="#20cad1" stroke-width=".8" transform="translate(.4 .4)"/><path d="m240.758-9293.851 2.551-2.786" fill="none" stroke-linecap="round" stroke-width="2" transform="translate(-233.601 9303.93)"/></g></svg>